<svg width="30" height="30" viewBox="0 0 30 30" fill="none" xmlns="http://www.w3.org/2000/svg">
<path d="M3.4375 25.3125C2.83333 25.3125 2.31771 25.099 1.89063 24.6719C1.46354 24.2448 1.25 23.7292 1.25 23.125C1.25 22.5208 1.46354 22.0052 1.89063 21.5781C2.31771 21.151 2.83333 20.9375 3.4375 20.9375C3.54167 20.9375 3.64583 20.9427 3.75 20.9531C3.85417 20.9635 3.98958 20.9896 4.15625 21.0313L10.4062 14.7812C10.3646 14.6146 10.3385 14.4792 10.3281 14.375C10.3177 14.2708 10.3125 14.1667 10.3125 14.0625C10.3125 13.4583 10.526 12.9427 10.9531 12.5156C11.3802 12.0885 11.8958 11.875 12.5 11.875C13.1042 11.875 13.6198 12.0885 14.0469 12.5156C14.474 12.9427 14.6875 13.4583 14.6875 14.0625C14.6875 14.1042 14.6563 14.3438 14.5938 14.7812L18.0313 18.2188C18.1979 18.1771 18.3333 18.151 18.4375 18.1406C18.5417 18.1302 18.6458 18.125 18.75 18.125C18.8542 18.125 18.9583 18.1302 19.0625 18.1406C19.1667 18.151 19.3021 18.1771 19.4687 18.2188L24.4688 13.2188C24.4271 13.0521 24.401 12.9167 24.3906 12.8125C24.3802 12.7083 24.375 12.6042 24.375 12.5C24.375 11.8958 24.5885 11.3802 25.0156 10.9531C25.4427 10.526 25.9583 10.3125 26.5625 10.3125C27.1667 10.3125 27.6823 10.526 28.1094 10.9531C28.5365 11.3802 28.75 11.8958 28.75 12.5C28.75 13.1042 28.5365 13.6198 28.1094 14.0469C27.6823 14.474 27.1667 14.6875 26.5625 14.6875C26.4583 14.6875 26.3542 14.6823 26.25 14.6719C26.1458 14.6615 26.0104 14.6354 25.8437 14.5938L20.8437 19.5938C20.8854 19.7604 20.9115 19.8958 20.9219 20C20.9323 20.1042 20.9375 20.2083 20.9375 20.3125C20.9375 20.9167 20.724 21.4323 20.2969 21.8594C19.8698 22.2865 19.3542 22.5 18.75 22.5C18.1458 22.5 17.6302 22.2865 17.2031 21.8594C16.776 21.4323 16.5625 20.9167 16.5625 20.3125C16.5625 20.2083 16.5677 20.1042 16.5781 20C16.5885 19.8958 16.6146 19.7604 16.6562 19.5938L13.2187 16.1563C13.0521 16.1979 12.9167 16.224 12.8125 16.2344C12.7083 16.2448 12.6042 16.25 12.5 16.25C12.4583 16.25 12.2188 16.2188 11.7813 16.1563L5.53125 22.4062C5.57292 22.5729 5.59896 22.7083 5.60938 22.8125C5.61979 22.9167 5.625 23.0208 5.625 23.125C5.625 23.7292 5.41146 24.2448 4.98437 24.6719C4.55729 25.099 4.04167 25.3125 3.4375 25.3125ZM5 11.5L4.375 10.125L3 9.5L4.375 8.875L5 7.5L5.625 8.875L7 9.5L5.625 10.125L5 11.5ZM18.75 9.90625L17.7813 7.84375L15.7187 6.875L17.7813 5.90625L18.75 3.84375L19.7187 5.90625L21.7812 6.875L19.7187 7.84375L18.75 9.90625Z" fill="url(#paint0_linear_90_19)"/>
<defs>
<linearGradient id="paint0_linear_90_19" x1="15" y1="3.84375" x2="15" y2="25.3125" gradientUnits="userSpaceOnUse">
<stop stop-color="#3C93F6"/>
<stop offset="1" stop-color="#2B72D4"/>
</linearGradient>
</defs>
</svg>
