<svg width="30" height="30" viewBox="0 0 30 30" fill="none" xmlns="http://www.w3.org/2000/svg">
<path d="M25.0312 20.4688L23.4687 18.9063C24.4687 17.8438 25.2344 16.7552 25.7656 15.6406C26.2969 14.526 26.5625 13.1563 26.5625 11.5313C26.5625 9.90625 26.2969 8.53646 25.7656 7.42187C25.2344 6.30729 24.4687 5.21875 23.4687 4.15625L25.0312 2.59375C26.1979 3.80208 27.1094 5.11979 27.7656 6.54688C28.4219 7.97396 28.75 9.63542 28.75 11.5313C28.75 13.4271 28.4219 15.0885 27.7656 16.5156C27.1094 17.9427 26.1979 19.2604 25.0312 20.4688ZM20.6875 16.0312L19.125 14.4688C19.5 14.0521 19.7917 13.6094 20 13.1406C20.2083 12.6719 20.3125 12.1354 20.3125 11.5313C20.3125 10.9271 20.2083 10.3906 20 9.92188C19.7917 9.45313 19.5 9.01042 19.125 8.59375L20.6875 7.03125C21.2292 7.61458 21.6667 8.29688 22 9.07812C22.3333 9.85938 22.5 10.6771 22.5 11.5313C22.5 12.3854 22.3333 13.2031 22 13.9844C21.6667 14.7656 21.2292 15.4479 20.6875 16.0312ZM11.25 16.2188C9.875 16.2188 8.75 15.7813 7.875 14.9063C7 14.0313 6.5625 12.9063 6.5625 11.5313C6.5625 10.1563 7 9.03125 7.875 8.15625C8.75 7.28125 9.875 6.84375 11.25 6.84375C12.625 6.84375 13.75 7.28125 14.625 8.15625C15.5 9.03125 15.9375 10.1563 15.9375 11.5313C15.9375 12.9063 15.5 14.0313 14.625 14.9063C13.75 15.7813 12.625 16.2188 11.25 16.2188ZM1.25 26.25V23.3125C1.25 22.5208 1.44792 21.849 1.84375 21.2969C2.23958 20.7448 2.75 20.3125 3.375 20C4.4375 19.4583 5.69271 19.0104 7.14063 18.6563C8.58854 18.3021 9.95833 18.125 11.25 18.125C12.5417 18.125 13.9062 18.3021 15.3437 18.6563C16.7812 19.0104 18.0312 19.4583 19.0937 20C19.7187 20.3125 20.2344 20.7448 20.6406 21.2969C21.0469 21.849 21.25 22.5208 21.25 23.3125V26.25H1.25ZM3.125 24.375H19.375V23.3125C19.375 22.9792 19.2865 22.6719 19.1094 22.3906C18.9323 22.1094 18.6771 21.875 18.3438 21.6875C17.3438 21.125 16.2083 20.7031 14.9375 20.4219C13.6667 20.1406 12.4375 20 11.25 20C10.0625 20 8.82812 20.151 7.54687 20.4531C6.26562 20.7552 5.125 21.1667 4.125 21.6875C3.83333 21.8333 3.59375 22.0573 3.40625 22.3594C3.21875 22.6615 3.125 22.9792 3.125 23.3125V24.375ZM11.25 14.3438C12.0625 14.3438 12.7344 14.0781 13.2656 13.5469C13.7969 13.0156 14.0625 12.3438 14.0625 11.5313C14.0625 10.7188 13.7969 10.0469 13.2656 9.51563C12.7344 8.98438 12.0625 8.71875 11.25 8.71875C10.4375 8.71875 9.76562 8.98438 9.23437 9.51563C8.70312 10.0469 8.4375 10.7188 8.4375 11.5313C8.4375 12.3438 8.70312 13.0156 9.23437 13.5469C9.76562 14.0781 10.4375 14.3438 11.25 14.3438Z" fill="url(#paint0_linear_90_23)"/>
<defs>
<linearGradient id="paint0_linear_90_23" x1="15" y1="2.59375" x2="15" y2="26.25" gradientUnits="userSpaceOnUse">
<stop stop-color="#3C93F6"/>
<stop offset="1" stop-color="#2B72D4"/>
</linearGradient>
</defs>
</svg>
