<svg width="20" height="19" viewBox="0 0 20 19" fill="none" xmlns="http://www.w3.org/2000/svg">
<path d="M10 18.6709C8.6 18.6709 7.29167 18.434 6.075 17.9604C4.85833 17.4868 3.8 16.844 2.9 16.0321C2 15.2202 1.29167 14.2616 0.775 13.1565C0.258333 12.0514 0 10.8673 0 9.60429C0 8.34128 0.258333 7.16473 0.775 6.07464C1.29167 4.98455 2 4.03353 2.9 3.2216C3.8 2.40967 4.85833 1.77441 6.075 1.31582C7.29167 0.857225 8.6 0.62793 10 0.62793C11.4 0.62793 12.7083 0.857225 13.925 1.31582C15.1417 1.77441 16.2 2.40967 17.1 3.2216C18 4.03353 18.7083 4.98455 19.225 6.07464C19.7417 7.16473 20 8.34128 20 9.60429C20 10.8673 19.7417 12.0514 19.225 13.1565C18.7083 14.2616 18 15.2202 17.1 16.0321C16.2 16.844 15.1417 17.4868 13.925 17.9604C12.7083 18.434 11.4 18.6709 10 18.6709ZM13.95 6.26635H17.7C17.15 5.22888 16.3958 4.36432 15.4375 3.67267C14.4792 2.98103 13.375 2.49237 12.125 2.20669C12.5417 2.76301 12.8958 3.36444 13.1875 4.01098C13.4792 4.65752 13.7333 5.40931 13.95 6.26635ZM7.6 6.26635H12.45C12.2667 5.46945 11.9583 4.69887 11.525 3.9546C11.0917 3.21032 10.5833 2.55251 10 1.98115C9.46667 2.38712 9.01667 2.92089 8.65 3.58246C8.28333 4.24403 7.93333 5.13866 7.6 6.26635ZM1.8 11.6567H5.775C5.725 11.2507 5.69583 10.8861 5.6875 10.5628C5.67917 10.2396 5.675 9.92004 5.675 9.60429C5.675 9.22839 5.68333 8.89385 5.7 8.60065C5.71667 8.30745 5.75 7.98042 5.8 7.61957H1.8C1.68333 7.98042 1.60417 8.30369 1.5625 8.58937C1.52083 8.87505 1.5 9.21336 1.5 9.60429C1.5 9.99522 1.52083 10.3448 1.5625 10.653C1.60417 10.9613 1.68333 11.2958 1.8 11.6567ZM7.875 17.0921C7.45833 16.5207 7.1 15.9043 6.8 15.2427C6.5 14.5811 6.25 13.8369 6.05 13.0099H2.3C2.93333 14.0774 3.66667 14.9157 4.5 15.5246C5.33333 16.1336 6.45833 16.6561 7.875 17.0921ZM2.3 6.26635H6.075C6.25833 5.45441 6.49167 4.72894 6.775 4.08992C7.05833 3.4509 7.41667 2.83067 7.85 2.22924C6.6 2.51492 5.50833 2.99606 4.575 3.67267C3.64167 4.34928 2.88333 5.21384 2.3 6.26635ZM10 17.3627C10.5833 16.8215 11.0708 16.2012 11.4625 15.5021C11.8542 14.8029 12.175 13.9722 12.425 13.0099H7.6C7.83333 13.912 8.14583 14.724 8.5375 15.4457C8.92917 16.1674 9.41667 16.8064 10 17.3627ZM7.325 11.6567H12.7C12.7667 11.1906 12.8083 10.8109 12.825 10.5177C12.8417 10.2245 12.85 9.92004 12.85 9.60429C12.85 9.30357 12.8417 9.01413 12.825 8.73597C12.8083 8.45781 12.7667 8.08568 12.7 7.61957H7.325C7.25833 8.08568 7.21667 8.45781 7.2 8.73597C7.18333 9.01413 7.175 9.30357 7.175 9.60429C7.175 9.92004 7.18333 10.2245 7.2 10.5177C7.21667 10.8109 7.25833 11.1906 7.325 11.6567ZM12.15 17.0696C13.35 16.7237 14.4292 16.205 15.3875 15.5133C16.3458 14.8217 17.1167 13.9872 17.7 13.0099H13.975C13.7583 13.8218 13.5042 14.5586 13.2125 15.2202C12.9208 15.8817 12.5667 16.4982 12.15 17.0696ZM14.2 11.6567H18.2C18.3167 11.2958 18.3958 10.9613 18.4375 10.653C18.4792 10.3448 18.5 9.99522 18.5 9.60429C18.5 9.21336 18.4792 8.87505 18.4375 8.58937C18.3958 8.30369 18.3167 7.98042 18.2 7.61957H14.225C14.275 8.14582 14.3083 8.54803 14.325 8.82619C14.3417 9.10435 14.35 9.36372 14.35 9.60429C14.35 9.93508 14.3375 10.2471 14.3125 10.5403C14.2875 10.8335 14.25 11.2056 14.2 11.6567Z" fill="url(#paint0_linear_119_3)"/>
<defs>
<linearGradient id="paint0_linear_119_3" x1="10" y1="0.62793" x2="10" y2="18.6709" gradientUnits="userSpaceOnUse">
<stop stop-color="#3B91F4"/>
<stop offset="1" stop-color="#2E78DA"/>
</linearGradient>
</defs>
</svg>
