<svg width="20" height="13" viewBox="0 0 20 13" fill="none" xmlns="http://www.w3.org/2000/svg">
<path d="M11.8182 3.93664C11.8182 3.85463 11.8485 3.77603 11.9091 3.70085C11.9697 3.62567 12.0379 3.57441 12.1136 3.54708C12.5682 3.39672 13.0341 3.28053 13.5114 3.19852C13.9886 3.11651 14.4848 3.0755 15 3.0755C15.3333 3.0755 15.6591 3.09259 15.9773 3.12676C16.2955 3.16093 16.6061 3.21219 16.9091 3.28053C17 3.30787 17.0833 3.35913 17.1591 3.43431C17.2348 3.50949 17.2727 3.59492 17.2727 3.6906C17.2727 3.84096 17.2159 3.95714 17.1023 4.03916C16.9886 4.12117 16.8485 4.14167 16.6818 4.10067C16.4242 4.03232 16.1553 3.98106 15.875 3.94689C15.5947 3.91272 15.303 3.89563 15 3.89563C14.5606 3.89563 14.1364 3.93322 13.7273 4.0084C13.3182 4.08358 12.9167 4.19635 12.5227 4.34671C12.3106 4.41505 12.1402 4.41163 12.0114 4.33646C11.8826 4.26128 11.8182 4.12801 11.8182 3.93664ZM11.8182 8.44737C11.8182 8.36536 11.8485 8.28335 11.9091 8.20133C11.9697 8.11932 12.0379 8.06465 12.1136 8.03731C12.5682 7.88695 13.0341 7.77418 13.5114 7.699C13.9886 7.62382 14.4848 7.58623 15 7.58623C15.3333 7.58623 15.6591 7.60332 15.9773 7.63749C16.2955 7.67166 16.6061 7.72292 16.9091 7.79127C17 7.81861 17.0833 7.86986 17.1591 7.94504C17.2348 8.02022 17.2727 8.10565 17.2727 8.20133C17.2727 8.35169 17.2159 8.46788 17.1023 8.54989C16.9886 8.6319 16.8485 8.65241 16.6818 8.6114C16.4242 8.54306 16.1553 8.4918 15.875 8.45763C15.5947 8.42345 15.303 8.40637 15 8.40637C14.5606 8.40637 14.1364 8.44054 13.7273 8.50888C13.3182 8.57723 12.9167 8.68658 12.5227 8.83694C12.3106 8.90528 12.1402 8.90528 12.0114 8.83694C11.8826 8.76859 11.8182 8.63874 11.8182 8.44737ZM11.8182 6.19201C11.8182 6.10999 11.8485 6.0314 11.9091 5.95622C11.9697 5.88104 12.0379 5.82978 12.1136 5.80244C12.5682 5.65209 13.0341 5.5359 13.5114 5.45389C13.9886 5.37187 14.4848 5.33087 15 5.33087C15.3333 5.33087 15.6591 5.34795 15.9773 5.38213C16.2955 5.4163 16.6061 5.46756 16.9091 5.5359C17 5.56324 17.0833 5.6145 17.1591 5.68968C17.2348 5.76485 17.2727 5.85029 17.2727 5.94597C17.2727 6.09633 17.2159 6.21251 17.1023 6.29452C16.9886 6.37654 16.8485 6.39704 16.6818 6.35603C16.4242 6.28769 16.1553 6.23643 15.875 6.20226C15.5947 6.16809 15.303 6.151 15 6.151C14.5606 6.151 14.1364 6.18859 13.7273 6.26377C13.3182 6.33895 12.9167 6.45172 12.5227 6.60207C12.3106 6.67042 12.1402 6.667 12.0114 6.59182C11.8826 6.51664 11.8182 6.38337 11.8182 6.19201ZM4.72727 10.2517C5.54545 10.2517 6.33712 10.3371 7.10227 10.508C7.86742 10.6788 8.62121 10.9351 9.36364 11.2768V2.52191C8.68182 2.11184 7.94318 1.79404 7.14773 1.56851C6.35227 1.34297 5.54545 1.2302 4.72727 1.2302C4.15152 1.2302 3.58712 1.29513 3.03409 1.42498C2.48106 1.55484 1.92424 1.71545 1.36364 1.90681V10.8053C1.83333 10.6139 2.36742 10.4738 2.96591 10.3849C3.56439 10.2961 4.15152 10.2517 4.72727 10.2517ZM10.7273 11.2768C11.4848 10.9351 12.2273 10.6788 12.9545 10.508C13.6818 10.3371 14.4545 10.2517 15.2727 10.2517C15.8485 10.2517 16.4432 10.2927 17.0568 10.3747C17.6705 10.4567 18.197 10.5661 18.6364 10.7027V1.90681C18.1212 1.67444 17.5758 1.50358 17 1.39423C16.4242 1.28488 15.8485 1.2302 15.2727 1.2302C14.4545 1.2302 13.6629 1.34297 12.8977 1.56851C12.1326 1.79404 11.4091 2.11184 10.7273 2.52191V11.2768ZM10.0455 12.8966C9.92424 12.8966 9.81439 12.8863 9.71591 12.8658C9.61742 12.8453 9.5303 12.8078 9.45455 12.7531C8.74242 12.3567 7.98485 12.0491 7.18182 11.8304C6.37879 11.6117 5.56061 11.5024 4.72727 11.5024C4.16667 11.5024 3.62121 11.5639 3.09091 11.6869C2.56061 11.8099 2.0303 11.9603 1.5 12.138C1.15152 12.2883 0.814394 12.2678 0.488636 12.0765C0.162879 11.8851 0 11.6117 0 11.2563V1.76329C0 1.55825 0.0530303 1.37031 0.159091 1.19945C0.265151 1.02858 0.424242 0.895312 0.636364 0.79963C1.27273 0.526252 1.93561 0.324636 2.625 0.194782C3.31439 0.0649274 4.01515 0 4.72727 0C5.68182 0 6.60985 0.116186 7.51136 0.348557C8.41288 0.580928 9.25758 0.936319 10.0455 1.41473C10.8182 0.936319 11.6477 0.580928 12.5341 0.348557C13.4205 0.116186 14.3333 0 15.2727 0C15.9848 0 16.6818 0.0649274 17.3636 0.194782C18.0455 0.324636 18.7045 0.526252 19.3409 0.79963C19.553 0.895312 19.7159 1.02858 19.8295 1.19945C19.9432 1.37031 20 1.55825 20 1.76329V11.2563C20 11.6391 19.8295 11.9295 19.4886 12.1277C19.1477 12.3259 18.8106 12.3293 18.4773 12.138C17.9621 11.9466 17.4394 11.7928 16.9091 11.6766C16.3788 11.5605 15.8333 11.5024 15.2727 11.5024C14.4545 11.5024 13.6515 11.6117 12.8636 11.8304C12.0758 12.0491 11.3333 12.3567 10.6364 12.7531C10.5606 12.8078 10.4735 12.8453 10.375 12.8658C10.2765 12.8863 10.1667 12.8966 10.0455 12.8966Z" fill="url(#paint0_linear_119_2)"/>
<defs>
<linearGradient id="paint0_linear_119_2" x1="10" y1="0" x2="10" y2="12.8966" gradientUnits="userSpaceOnUse">
<stop stop-color="#3C93F6"/>
<stop offset="1" stop-color="#2D76D8"/>
</linearGradient>
</defs>
</svg>
